<svg width="40" height="41" viewBox="0 0 40 41" fill="none" xmlns="http://www.w3.org/2000/svg">
<path d="M40 4.8326C38.529 5.64924 36.9488 6.20103 35.2876 6.45044C37.0017 5.16542 38.2841 3.14295 38.8954 0.760404C37.285 1.95886 35.5225 2.80245 33.6845 3.25448C32.4485 1.60103 30.8113 0.505094 29.0273 0.136827C27.2432 -0.231441 25.412 0.148563 23.8179 1.21784C22.2239 2.28712 20.9562 3.98585 20.2117 6.05029C19.4672 8.11473 19.2875 10.4294 19.7005 12.6349C16.4374 12.4296 13.2452 11.367 10.3311 9.51596C7.41693 7.66494 4.84602 5.06691 2.78517 1.89047C2.08051 3.4134 1.67533 5.17912 1.67533 7.05961C1.67454 8.75248 2.00728 10.4194 2.64402 11.9125C3.28076 13.4057 4.20182 14.6788 5.32546 15.6189C4.02233 15.567 2.74795 15.1258 1.60839 14.3322V14.4646C1.60825 16.8389 2.26378 19.1402 3.46372 20.9779C4.66367 22.8156 6.33413 24.0766 8.19167 24.5469C6.9828 24.9568 5.71538 25.0171 4.48516 24.7234C5.00924 26.7664 6.03012 28.5529 7.40486 29.8328C8.7796 31.1127 10.4394 31.822 12.1519 31.8614C9.24484 34.7205 5.65469 36.2714 1.95895 36.2646C1.30429 36.2648 0.650183 36.2169 0 36.1212C3.75139 39.1431 8.11828 40.7469 12.5782 40.7407C27.6755 40.7407 35.9288 25.0744 35.9288 11.4872C35.9288 11.0457 35.92 10.5999 35.9042 10.1584C37.5095 8.70388 38.8953 6.90267 39.9965 4.83922L40 4.8326Z" fill="white"/>
</svg>
